<svg xmlns="http://www.w3.org/2000/svg" viewBox="0 0 100 100" width="1024" height="1024">
    <path d="
        M0 20H100M0 50H100M0 80H100
        M20 26a6 6 0 1 1 0-12a6 6 0 1 1 0 12v18a6 6 0 1 1 0 12a6 6 0 1 1 0-12z
        M50 56a6 6 0 1 1 0-12a6 6 0 1 1 0 12v18a6 6 0 1 1 0 12a6 6 0 1 1 0-12z
        M80 26a6 6 0 1 1 0-12a6 6 0 1 1 0 12v18a6 6 0 1 1 0 12a6 6 0 1 1 0-12z
    " stroke-width="30" stroke="#fff" fill="#fff"/>
    <path d="
        M0 20H100M0 50H100M0 80H100
        M20 26a6 6 0 1 1 0-12a6 6 0 1 1 0 12v18a6 6 0 1 1 0 12a6 6 0 1 1 0-12z
        M50 56a6 6 0 1 1 0-12a6 6 0 1 1 0 12v18a6 6 0 1 1 0 12a6 6 0 1 1 0-12z
        M80 26a6 6 0 1 1 0-12a6 6 0 1 1 0 12v18a6 6 0 1 1 0 12a6 6 0 1 1 0-12z
    " stroke-width="8" stroke="#000" fill="#000"/>
</svg>
